<?xml version="1.0" encoding="UTF-8" standalone="no"?>
<!DOCTYPE svg PUBLIC "-//W3C//DTD SVG 1.1//EN" "http://www.w3.org/Graphics/SVG/1.1/DTD/svg11.dtd">
<svg width="100%" height="100%" viewBox="0 0 2134 2134" version="1.1" xmlns="http://www.w3.org/2000/svg" xmlns:xlink="http://www.w3.org/1999/xlink" xml:space="preserve" xmlns:serif="http://www.serif.com/" style="fill-rule:evenodd;clip-rule:evenodd;stroke-linecap:round;stroke-linejoin:round;">
    <g transform="matrix(4.16667,0,0,4.16667,0,0)">
        <g transform="matrix(2.08267,0,0,2.08267,-425.202,2.84748)">
            <g transform="matrix(5.58723,0,0,5.58723,204.162,-1.36723)">
                <rect x="0" y="0" width="44" height="44" style="fill:none;fill-rule:nonzero;"/>
            </g>
            <g transform="matrix(3.42119e-16,5.58723,-5.58723,3.42119e-16,450,-1.36723)">
                <path d="M5.5,7.333C5.5,6.328 6.328,5.5 7.333,5.5L36.667,5.5C37.672,5.5 38.5,6.328 38.5,7.333L38.5,36.667C38.5,37.672 37.672,38.5 36.667,38.5L7.333,38.5C6.328,38.5 5.5,37.672 5.5,36.667L5.5,7.333ZM22,5.5L22,38.5" style="fill:none;fill-rule:nonzero;stroke:rgb(44,62,80);stroke-width:1.72px;"/>
            </g>
        </g>
    </g>
</svg>
